# xmcd
#
# Track frame offsets:
#	150
#	21500
#	42707
#	61202
#	81607
#	105462
#	135068
#	152721
#	178007
#	205256
#	220824
#	243124
#	261915
#
# Disc length: 3936 seconds
#
# Revision: 2
# Processed by: cddbd v1.5.1PL2 Copyright (c) Steve Scherf et al.
# Submitted via: audiograbber 1.83.01
#
DISCID=b50f5e0d
DTITLE=Blues Traveler - Straight On Till Morning
DYEAR=1997
DGENRE=Blues Rock
TTITLE0=Carolina Blues
TTITLE1=Felicia
TTITLE2=Justify The Thrill
TTITLE3=Canadian Rose
TTITLE4=Business As Usual
TTITLE5=Yours
TTITLE6=Psycho Joe
TTITLE7=Great Big World
TTITLE8=Battle Of Someone
TTITLE9=Most Precarious
TTITLE10=The Gunfighter
TTITLE11=Last Night I Dreamed
TTITLE12=Make My Way
EXTD=
EXTT0=
EXTT1=
EXTT2=
EXTT3=
EXTT4=
EXTT5=
EXTT6=
EXTT7=
EXTT8=
EXTT9=
EXTT10=
EXTT11=
EXTT12=
PLAYORDER=
